<?xml version="1.0" encoding="UTF-8"?>
<svg id="svg8" xmlns="http://www.w3.org/2000/svg" viewBox="0 0 132.99 34.91">
  <path id="path1144-0" d="M13.68.43l-5.75,3.32v27.59l5.75,3.32h49.17l3.61-.5v-.87h1.95v.82h1.91v-1.08h1.98v.73h1.84v-.95h1.73v.73h1.91v-.97h1.95v.77h1.91v-1.04h1.92v.54h1.76v-.97h1.94v.76l3.78,2.03h10.11l1.28-1.54V1.98l-1.28-1.54h-10.11l-3.78,2.03v.76h-1.94v-.97h-1.76v.54h-1.92v-1.04h-1.91v.77h-1.95v-.97h-1.91v.73h-1.73v-.95h-1.84v.73h-1.98V.99h-1.91v.82h-1.95v-.87l-3.61-.5H13.68Z" style="fill: #a7cadd; stroke: #231815; stroke-miterlimit: 10; stroke-width: .5px;"/>
  <path id="rect1142-4" d="M66.52,3.23v28.65h1.95V3.23h-1.95ZM70.36,3.23v28.65h1.95V3.23h-1.95ZM74.11,3.23v28.65h1.95v-14.33h0V3.22h-1.95ZM77.79,3.23v28.65h1.95V3.23h-1.95ZM81.68,3.23v28.65h1.95V3.23h-1.95ZM85.36,3.23v28.65h1.95V3.23h-1.95Z" style="fill: #909fbd; stroke: #000; stroke-linecap: square; stroke-linejoin: round; stroke-width: .38px;"/>
  <rect id="rect1199-4" x="46.49" y="22.75" width="5.76" height="9.13" style="fill: #909fbd; stroke: #231815; stroke-miterlimit: 10; stroke-width: .25px;"/>
  <rect id="rect1199-2-8" x="46.49" y="3.21" width="5.76" height="9.13" style="fill: #909fbd; stroke: #231815; stroke-miterlimit: 10; stroke-width: .25px;"/>
  <path id="rect1263-9" d="M102.44,5.56v23.96h9.58V5.56h-9.58Z" style="fill: #909fbd; stroke: #231815; stroke-miterlimit: 10; stroke-width: .25px;"/>
  <path id="path1265-1" d="M112.02,6.57v21.74s1.31-2.73,2.28-3.35c.4-.28,1.03-.59,2.11-.75,3.94-.58,11.39-1.75,16.46-2.45v-8.64c-5.07-.7-12.52-1.87-16.46-2.45-1.08-.15-1.72-.46-2.11-.75-.97-.62-2.28-3.35-2.28-3.35h0v.02Z" style="fill: #909fbd; stroke: #231815; stroke-miterlimit: 10; stroke-width: .25px;"/>
  <path id="rect1353-4" d="M31.12,14.05c-1.72,0-3.12,1.57-3.12,3.5s1.37,3.48,3.08,3.5h14.58v-7h-14.54,0Z" style="fill: #909fbd; stroke: #231815; stroke-miterlimit: 10; stroke-width: .25px;"/>
  <path id="path2724-1-0" d="M7.77,12.7H1.89v9.46h5.88" style="fill: none; stroke: #000; stroke-linecap: round; stroke-linejoin: round; stroke-width: .38px;"/>
  <path id="path2726-8-5" d="M1.89,12.7l-1.7,1.14v7.17l1.7,1.14" style="fill: none; stroke: #000; stroke-linecap: round; stroke-linejoin: round; stroke-width: .38px;"/>
</svg>